<svg version="1.1" xmlns="http://www.w3.org/2000/svg" xmlns:xlink="http://www.w3.org/1999/xlink" x="0px" y="0px" width="858.898px" height="1207.558px" viewBox="0 0 858.898 1207.558"><defs><symbol id="kika_symbol" viewBox="-176.189 -176.189 352.378 352.378"><g id="symbol_1_"><path id="connectors_1_" d="M43.524-17.858h39.707C81.026-12.336 79.811-6.31 79.811 0c0 6.227 1.181 12.178 3.332 17.641h-40.56l66.192 66.16c-11.168 4.865-20.133 13.836-24.989 25.008L17.721 42.727v40.447c-5.485-2.17-11.464-3.363-17.72-3.363 -6.28 0-12.279 1.202-17.78 3.387V43.382l-65.822 65.852c-4.733-11.184-13.568-20.208-24.619-25.189l66.449-66.404h-41.371c2.15-5.464 3.332-11.415 3.332-17.641 0-6.31-1.214-12.335-3.419-17.859h40.362l-65.933-65.932c11.169-4.857 20.137-13.82 25-24.986l66.021 66.051v-40.473c5.501 2.185 11.5 3.388 17.78 3.388 6.257 0 12.236-1.193 17.72-3.363v41.26l66.319-66.32c4.983 11.065 14.019 19.91 25.219 24.642L43.524-17.858zM0-18.426c-10.176 0-18.426 8.249-18.426 18.426 0 10.176 8.249 18.426 18.426 18.426 10.177 0 18.426-8.249 18.426-18.426C18.426-10.176 10.177-18.426 0-18.426z" fill="#FFF"/><path id="circle_15_" d="M-128 146.425c10.16 0 18.425-8.266 18.425-18.425 0-10.159-8.266-18.425-18.425-18.425s-18.425 8.266-18.425 18.425S-138.159 146.425-128 146.425M-128 176.189c-26.615 0-48.189-21.574-48.189-48.189S-154.614 79.811-128 79.811 -79.811 101.386-79.811 128 -101.385 176.189-128 176.189L-128 176.189z" fill="#FC3"/><path id="circle_14_" d="M-128 18.425c10.16 0 18.425-8.266 18.425-18.426S-117.84-18.426-128-18.426s-18.425 8.266-18.425 18.426S-138.159 18.425-128 18.425M-128 48.189c-26.615 0-48.189-21.574-48.189-48.189S-154.614-48.189-128-48.189 -79.811-26.615-79.811 0 -101.385 48.189-128 48.189L-128 48.189z" fill="#98CB67"/><path id="circle_13_" d="M128 18.425c10.159 0 18.426-8.266 18.426-18.426S138.16-18.426 128-18.426s-18.425 8.266-18.425 18.426S117.841 18.425 128 18.425M128 48.189c-26.614 0-48.189-21.574-48.189-48.189S101.386-48.189 128-48.189 176.189-26.615 176.189 0 154.615 48.189 128 48.189L128 48.189z" fill="#98CB67"/><path id="circle_12_" d="M-128-109.575c10.16 0 18.425-8.266 18.425-18.426s-8.266-18.426-18.425-18.426 -18.425 8.266-18.425 18.426S-138.159-109.575-128-109.575M-128-79.811c-26.615 0-48.189-21.574-48.189-48.189s21.574-48.189 48.189-48.189S-79.811-154.615-79.811-128 -101.385-79.811-128-79.811L-128-79.811z" fill="#FC3"/><path id="circle_11_" d="M0-109.575c10.16 0 18.426-8.266 18.426-18.426S10.16-146.426 0-146.426s-18.426 8.266-18.426 18.426S-10.159-109.575 0-109.575M0-79.811c-26.615 0-48.189-21.574-48.189-48.189S-26.614-176.189 0-176.189 48.189-154.615 48.189-128 26.615-79.811 0-79.811L0-79.811z" fill="#98CBCB"/><path id="circle_10_" d="M128-109.575c10.159 0 18.426-8.266 18.426-18.426S138.16-146.426 128-146.426s-18.425 8.266-18.425 18.426S117.841-109.575 128-109.575M128-79.811c-26.614 0-48.189-21.574-48.189-48.189s21.574-48.189 48.189-48.189 48.189 21.574 48.189 48.189S154.615-79.811 128-79.811L128-79.811z" fill="#FC3"/><path id="circle_9_" d="M0 146.425c10.16 0 18.426-8.266 18.426-18.425 0-10.159-8.266-18.425-18.426-18.425S-18.425 117.841-18.425 128 -10.159 146.425 0 146.425M0 176.189c-26.615 0-48.189-21.574-48.189-48.189S-26.614 79.811 0 79.811 48.189 101.386 48.189 128 26.615 176.189 0 176.189L0 176.189z" fill="#98CBCB"/><path id="circle_8_" d="M128 146.425c10.159 0 18.426-8.266 18.426-18.425 0-10.159-8.266-18.425-18.426-18.425s-18.425 8.266-18.425 18.425S117.841 146.425 128 146.425M128 176.189c-26.614 0-48.189-21.574-48.189-48.189S101.386 79.811 128 79.811s48.189 21.575 48.189 48.189S154.615 176.189 128 176.189L128 176.189z" fill="#FC3"/></g></symbol><symbol id="kika_symbol_desaturated" viewBox="-176.189 -176.189 352.378 352.378"><g id="symbol_4_"><path id="connectors_4_" d="M43.524-17.858h39.707C81.026-12.336 79.811-6.31 79.811 0c0 6.227 1.181 12.178 3.332 17.641h-40.56l66.192 66.16c-11.168 4.865-20.133 13.836-24.989 25.008L17.721 42.727v40.447c-5.485-2.17-11.464-3.363-17.72-3.363 -6.28 0-12.279 1.202-17.78 3.387V43.382l-65.822 65.852c-4.733-11.184-13.568-20.208-24.619-25.189l66.449-66.404h-41.371c2.15-5.464 3.332-11.415 3.332-17.641 0-6.31-1.214-12.335-3.419-17.859h40.362l-65.933-65.932c11.169-4.857 20.137-13.82 25-24.986l66.021 66.051v-40.473c5.501 2.185 11.5 3.388 17.78 3.388 6.257 0 12.236-1.193 17.72-3.363v41.26l66.319-66.32c4.983 11.065 14.019 19.91 25.219 24.642L43.524-17.858zM0-18.426c-10.176 0-18.426 8.249-18.426 18.426 0 10.176 8.249 18.426 18.426 18.426 10.177 0 18.426-8.249 18.426-18.426C18.426-10.176 10.177-18.426 0-18.426z" fill="#FFF"/><path id="circle_32_" d="M-128 146.425c10.16 0 18.425-8.266 18.425-18.425 0-10.159-8.266-18.425-18.425-18.425s-18.425 8.266-18.425 18.425S-138.159 146.425-128 146.425M-128 176.189c-26.615 0-48.189-21.574-48.189-48.189S-154.614 79.811-128 79.811 -79.811 101.386-79.811 128 -101.385 176.189-128 176.189L-128 176.189z" fill="#C9C9C9"/><path id="circle_31_" d="M-128 18.425c10.16 0 18.425-8.266 18.425-18.426S-117.84-18.426-128-18.426s-18.425 8.266-18.425 18.426S-138.159 18.425-128 18.425M-128 48.189c-26.615 0-48.189-21.574-48.189-48.189S-154.614-48.189-128-48.189 -79.811-26.615-79.811 0 -101.385 48.189-128 48.189L-128 48.189z" fill="#C8C8C8"/><path id="circle_30_" d="M128 18.425c10.159 0 18.426-8.266 18.426-18.426S138.16-18.426 128-18.426s-18.425 8.266-18.425 18.426S117.841 18.425 128 18.425M128 48.189c-26.614 0-48.189-21.574-48.189-48.189S101.386-48.189 128-48.189 176.189-26.615 176.189 0 154.615 48.189 128 48.189L128 48.189z" fill="#C8C8C8"/><path id="circle_29_" d="M-128-109.575c10.16 0 18.425-8.266 18.425-18.426s-8.266-18.426-18.425-18.426 -18.425 8.266-18.425 18.426S-138.159-109.575-128-109.575M-128-79.811c-26.615 0-48.189-21.574-48.189-48.189s21.574-48.189 48.189-48.189S-79.811-154.615-79.811-128 -101.385-79.811-128-79.811L-128-79.811z" fill="#C9C9C9"/><path id="circle_28_" d="M0-109.575c10.16 0 18.426-8.266 18.426-18.426S10.16-146.426 0-146.426s-18.426 8.266-18.426 18.426S-10.159-109.575 0-109.575M0-79.811c-26.615 0-48.189-21.574-48.189-48.189S-26.614-176.189 0-176.189 48.189-154.615 48.189-128 26.615-79.811 0-79.811L0-79.811z" fill="#D4D4D4"/><path id="circle_27_" d="M128-109.575c10.159 0 18.426-8.266 18.426-18.426S138.16-146.426 128-146.426s-18.425 8.266-18.425 18.426S117.841-109.575 128-109.575M128-79.811c-26.614 0-48.189-21.574-48.189-48.189s21.574-48.189 48.189-48.189 48.189 21.574 48.189 48.189S154.615-79.811 128-79.811L128-79.811z" fill="#C9C9C9"/><path id="circle_26_" d="M0 146.425c10.16 0 18.426-8.266 18.426-18.425 0-10.159-8.266-18.425-18.426-18.425S-18.425 117.841-18.425 128 -10.159 146.425 0 146.425M0 176.189c-26.615 0-48.189-21.574-48.189-48.189S-26.614 79.811 0 79.811 48.189 101.386 48.189 128 26.615 176.189 0 176.189L0 176.189z" fill="#D4D4D4"/><path id="circle_25_" d="M128 146.425c10.159 0 18.426-8.266 18.426-18.425 0-10.159-8.266-18.425-18.426-18.425s-18.425 8.266-18.425 18.425S117.841 146.425 128 146.425M128 176.189c-26.614 0-48.189-21.574-48.189-48.189S101.386 79.811 128 79.811s48.189 21.575 48.189 48.189S154.615 176.189 128 176.189L128 176.189z" fill="#C9C9C9"/></g></symbol></defs><rect id="podloga_1_" x="0" y="0" width="858.898" height="1207.558"/><g id="animated_elements" visibility="hidden"><use xlink:href="#kika_symbol_desaturated" width="352.378" height="352.378" x="-176.189" y="-176.189" transform="matrix(0.4438 0 0 -0.4438 596.9199 268.837)" style="opacity:0.9;overflow:visible"/><use xlink:href="#kika_symbol_desaturated" width="352.378" height="352.378" x="-176.189" y="-176.189" transform="matrix(0.4438 0 0 -0.4438 429.4489 268.837)" style="opacity:0.9;overflow:visible"/><use xlink:href="#kika_symbol_desaturated" width="352.378" height="352.378" x="-176.189" y="-176.189" transform="matrix(0.4438 0 0 -0.4438 261.9779 268.837)" style="opacity:0.9;overflow:visible"/><use xlink:href="#kika_symbol_desaturated" width="352.378" height="352.378" x="-176.189" y="-176.189" transform="matrix(0.4438 0 0 -0.4438 261.9779 436.308)" style="opacity:0.9;overflow:visible"/><use xlink:href="#kika_symbol_desaturated" width="352.378" height="352.378" x="-176.189" y="-176.189" transform="matrix(0.4438 0 0 -0.4438 261.9779 603.779)" style="opacity:0.9;overflow:visible"/><use xlink:href="#kika_symbol_desaturated" width="352.378" height="352.378" x="-176.189" y="-176.189" transform="matrix(0.4438 0 0 -0.4438 261.9779 771.25)" style="opacity:0.9;overflow:visible"/><use xlink:href="#kika_symbol_desaturated" width="352.378" height="352.378" x="-176.189" y="-176.189" transform="matrix(0.4438 0 0 -0.4438 261.9779 938.721)" style="opacity:0.9;overflow:visible"/><use xlink:href="#kika_symbol_desaturated" width="352.378" height="352.378" x="-176.189" y="-176.189" transform="matrix(0.4438 0 0 -0.4438 429.4489 938.721)" style="opacity:0.9;overflow:visible"/><use xlink:href="#kika_symbol_desaturated" width="352.378" height="352.378" x="-176.189" y="-176.189" transform="matrix(0.4438 0 0 -0.4438 596.9199 938.721)" style="opacity:0.9;overflow:visible"/><use xlink:href="#kika_symbol_desaturated" width="352.378" height="352.378" x="-176.189" y="-176.189" transform="matrix(0.4438 0 0 -0.4438 596.9198 771.25)" style="opacity:0.9;overflow:visible"/><g><path d="M533.99 547.139h4.491v33.042h4.972v-33.042h4.492v33.042h4.972v-33.042h4.491v37.427H533.99V547.139z" fill="#FFCE34"/><path d="M579.273 547.139v4.384h-10.907v12.083h7.485v4.384h-7.485v12.19h10.907v4.384h-15.398v-37.427H579.273z" fill="#FFCE34"/><path d="M600.979 547.139v9.036h-4.491v-4.651h-6.736v28.658h6.736v-4.919h4.491v9.303H585.26v-37.427H600.979z" fill="#FFCE34"/><path d="M622.311 547.139v4.384h-5.614v33.042h-4.491v-33.042h-5.614v-4.384H622.311z" fill="#FFCE34"/><path d="M548.747 591.167v4.384h-10.266v33.043h-4.491v-37.427H548.747z" fill="#FFCE34"/><path d="M570.345 591.167v37.427h-15.719v-37.427H570.345zM559.117 624.209h6.736v-28.658h-6.736V624.209z" fill="#FFCE34"/><path d="M593.494 591.167v33.042h1.979v4.385h-4.545l0 0h-9.998l0 0h-4.491v-4.385h1.711l2.727-33.042H593.494zM589.003 624.209v-28.658h-4.063l-2.406 28.658H589.003z" fill="#FFCE34"/><path d="M618.194 591.167v37.427h-4.491v-25.397l-7.165 25.397h-5.025v-37.427h4.491v25.397l7.164-25.397H618.194z" fill="#FFCE34"/><path d="M629.153 591.167v16.254h6.736v-16.254h4.491v37.427h-4.491v-16.789h-6.736v16.789h-4.491v-37.427H629.153z" fill="#FFCE34"/><path d="M663.53 591.167v37.427h-4.491v-25.397l-7.165 25.397h-5.025v-37.427h4.491v25.397l7.164-25.397H663.53z" fill="#FFCE34"/><path d="M540.031 655.94l-3.582 16.682h-4.812l4.277-18.874 -3.957-18.553h4.813l3.261 16.361h1.391l3.262-16.361h4.812l-3.956 18.553 4.277 18.874h-4.813l-3.582-16.682H540.031z" fill="#FFCE34"/><path d="M568.955 635.195l2.513 37.427h-4.438l-0.642-10.64h-6.363l-0.641 10.64h-4.438l2.513-37.427H568.955zM566.067 657.598l-1.016-18.018h-3.689l-1.016 18.018H566.067z" fill="#FFCE34"/><path d="M581.571 672.622h-4.491v-37.427h4.491v16.308h2.94l4.813-16.308h4.812l-5.721 18.072 5.988 19.354h-4.919l-4.973-16.735h-2.94V672.622z" fill="#FFCE34"/><path d="M616.75 635.195v37.427h-4.491V639.58h-4.384l-2.514 33.042h-5.774v-4.384h1.818l2.405-33.043H616.75z" fill="#FFCE34"/><path d="M636.744 635.195l2.513 37.427h-4.438l-0.642-10.64h-6.363l-0.641 10.64h-4.438l2.513-37.427H636.744zM633.856 657.598l-1.016-18.018h-3.689l-1.016 18.018H633.856z" fill="#FFCE34"/><path d="M644.869 635.195h15.719v4.385H649.36v11.602h11.228v21.44h-15.719V635.195zM656.097 668.238v-12.672h-6.736v12.672H656.097z" fill="#FFCE34"/></g><use xlink:href="#kika_symbol" width="352.378" height="352.378" x="-176.189" y="-176.189" transform="matrix(0.4438 0 0 -0.4438 433.8871 603.779)" overflow="visible"/><path id="haklab_1_" d="M376.921 747.588l5.359 0.69v2.854l-6.661-1.36 -6.548 1.38v-2.874l5.246-0.69v-0.421l-5.246-0.689v-2.873l6.548 1.379 6.661-1.379v2.854l-5.359 0.709V747.588zM369.072 741.361l13.208 0.984v-2.46l-3.246-0.141v-1.089l3.246-0.141v-2.459l-13.208 0.984V741.361zM376.469 739.641l-4.755-0.159v-0.562l4.755-0.158V739.641zM382.28 732.256h-5.378v-0.581l5.378-0.999v-2.797l-6.831 1.726 -6.378-1.362v2.669l5.264 0.817v0.526h-5.264v2.543h13.208V732.256L382.28 732.256zM369.072 724.62l10.642 1.029v0.973h2.566v-3.104l-10.642-1.028v-0.845h10.642v-2.571h-13.208V724.62zM369.072 716.832l13.208 0.984v-2.459l-3.246-0.141v-1.089l3.246-0.141v-2.46l-13.208 0.984V716.832zM376.469 715.111l-4.755-0.159v-0.562l4.755-0.158V715.111zM382.28 710.269v-6.29h-8.038v3.788h-2.528v-3.788h-2.642v6.29H382.28zM379.714 707.767h-2.906v-1.286h2.906V707.767z" fill="#FFF"/><path id="kika_1_" d="M396.851 751.151h-9.476v-47.173h9.476v18.802h1.963l3.046-18.802h9.95l-5.076 22.778 6.43 24.395H402.74l-3.723-19.206h-2.166L396.851 751.151 396.851 751.151zM431.531 703.978l-5.917 23.856v-23.856h-9.307v47.173h9.307l5.917-23.856v23.856h9.306v-47.173H431.531zM455.345 751.151v-19.206h2.166l3.722 19.206h10.424l-6.43-24.395 5.076-22.778h-9.95l-3.046 18.802h-1.963v-18.802h-9.476v47.173H455.345L455.345 751.151zM478.541 703.978l-3.739 47.173h9.347l0.534-11.591h4.139l0.534 11.591h9.347l-3.739-47.173H478.541zM488.421 730.395h-3.338l0.601-16.982h2.136L488.421 730.395 488.421 730.395z" fill="#FFF"/></g></svg>